<svg width="157" height="24" viewBox="0 0 157 24" fill="none" xmlns="http://www.w3.org/2000/svg">
<path fill-rule="evenodd" clip-rule="evenodd" d="M18.4375 7.58594H9.38617C7.19711 7.58594 5.82422 9.13611 5.82422 11.3306V17.2513C5.82422 19.4458 7.18954 20.9959 9.38617 20.9959H18.4364C20.6341 20.9959 22.0005 19.4458 22.0005 17.2513V11.3306C22.0005 9.13611 20.6341 7.58594 18.4375 7.58594Z" stroke="#ADB5BD" stroke-width="1.5" stroke-linecap="round" stroke-linejoin="round"/>
<path d="M9.37207 12.0488H18.4472" stroke="#ADB5BD" stroke-width="1.5" stroke-linecap="round" stroke-linejoin="round"/>
<path d="M18.0852 7.58365L16.4994 4.94056C15.3632 3.06933 13.3979 2.43801 11.5116 3.57524L3.76284 8.23874C1.88403 9.36733 1.50568 11.4029 2.63426 13.2893L5.69569 18.3549C5.83839 18.6003 5.99622 18.8208 6.17675 19.0186V19.0262" stroke="#ADB5BD" stroke-width="1.5" stroke-linecap="round" stroke-linejoin="round"/>
<path d="M43.6597 19V8.65336L39.1927 16.6138H38.1427L33.6566 8.65336V19H31.9385V5.44628H33.7521L38.6581 14.2467L43.5833 5.44628H45.3777V19H43.6597ZM52.5981 19.1909C51.8473 19.1909 51.16 19.0573 50.5364 18.79C49.9256 18.51 49.3911 18.1346 48.9329 17.6637C48.4875 17.1801 48.1375 16.6265 47.883 16.0029C47.6412 15.3793 47.5203 14.7175 47.5203 14.0176C47.5203 13.0758 47.7366 12.2168 48.1693 11.4405C48.602 10.6641 49.2002 10.0405 49.9637 9.56966C50.7401 9.09878 51.6246 8.86334 52.6172 8.86334C53.6226 8.86334 54.4944 9.10515 55.2325 9.58875C55.9834 10.0596 56.5624 10.6832 56.9697 11.4595C57.3897 12.2231 57.5996 13.0504 57.5996 13.9412C57.5996 14.0685 57.5933 14.1957 57.5806 14.323C57.5806 14.4375 57.5742 14.5266 57.5615 14.5903H49.2956C49.3465 15.2393 49.5247 15.8184 49.8301 16.3274C50.1483 16.8238 50.5555 17.2183 51.0519 17.511C51.5482 17.791 52.0827 17.931 52.6554 17.931C53.2663 17.931 53.839 17.7783 54.3735 17.4728C54.9207 17.1674 55.2961 16.7665 55.4998 16.2702L56.9506 16.6711C56.7342 17.1547 56.4097 17.5874 55.977 17.9692C55.557 18.3509 55.0543 18.65 54.4689 18.8664C53.8962 19.0827 53.2726 19.1909 52.5981 19.1909ZM49.2383 13.4258H56.0343C55.9834 12.7767 55.7988 12.204 55.4807 11.7077C55.1625 11.2114 54.7553 10.8232 54.2589 10.5432C53.7626 10.2633 53.2154 10.1233 52.6172 10.1233C52.0318 10.1233 51.4909 10.2633 50.9946 10.5432C50.4983 10.8232 50.091 11.2114 49.7728 11.7077C49.4674 12.204 49.2892 12.7767 49.2383 13.4258ZM59.3716 15.0102V9.03515H61.0515V14.6857C61.0515 15.7038 61.2296 16.4674 61.586 16.9765C61.9423 17.4855 62.4705 17.7401 63.1704 17.7401C63.6286 17.7401 64.0676 17.6446 64.4876 17.4537C64.9203 17.2501 65.3085 16.9638 65.6521 16.5947C65.9957 16.2256 66.263 15.7866 66.4539 15.2775V9.03515H68.1338V17.091C68.1338 17.2946 68.1719 17.4474 68.2483 17.5492C68.3374 17.6383 68.4774 17.6892 68.6683 17.7019V19C68.4774 19.0255 68.3247 19.0382 68.2101 19.0382C68.1083 19.0509 68.0065 19.0573 67.9047 19.0573C67.5865 19.0573 67.3129 18.9618 67.0838 18.7709C66.8547 18.5673 66.7338 18.3191 66.7211 18.0264L66.6829 16.8619C66.2502 17.6001 65.6648 18.1728 64.9267 18.58C64.2013 18.9873 63.4059 19.1909 62.5405 19.1909C61.4969 19.1909 60.7078 18.8409 60.1733 18.141C59.6388 17.4283 59.3716 16.3847 59.3716 15.0102ZM74.3491 19.1909C73.5219 19.1909 72.7456 19.0573 72.0202 18.79C71.2947 18.51 70.6712 18.0964 70.1494 17.5492L70.7984 16.3656C71.3711 16.9001 71.9438 17.2819 72.5165 17.511C73.0892 17.7401 73.6746 17.8546 74.2727 17.8546C74.96 17.8546 75.5199 17.7274 75.9526 17.4728C76.3853 17.2056 76.6017 16.8174 76.6017 16.3083C76.6017 15.9393 76.4872 15.6657 76.2581 15.4875C76.0417 15.3093 75.7299 15.163 75.3227 15.0484C74.9154 14.9212 74.4318 14.7812 73.8719 14.6284C73.1846 14.4248 72.6056 14.2085 72.1347 13.9794C71.6638 13.7503 71.3075 13.464 71.0657 13.1204C70.8239 12.7767 70.703 12.344 70.703 11.8223C70.703 11.1859 70.8684 10.6514 71.1993 10.2187C71.5302 9.77329 71.982 9.43604 72.5547 9.20696C73.1401 8.97788 73.8019 8.86334 74.54 8.86334C75.2781 8.86334 75.9463 8.97788 76.5444 9.20696C77.1426 9.43604 77.658 9.77329 78.0907 10.2187L77.3271 11.3832C76.9326 10.9759 76.4999 10.6769 76.029 10.486C75.5581 10.2823 75.03 10.1805 74.4446 10.1805C74.1009 10.1805 73.7637 10.2251 73.4328 10.3142C73.1019 10.3905 72.8283 10.5369 72.6119 10.7532C72.3956 10.9569 72.2874 11.2496 72.2874 11.6314C72.2874 11.9495 72.3701 12.204 72.5356 12.3949C72.7138 12.5731 72.9683 12.7258 73.2992 12.8531C73.6428 12.9804 74.0564 13.1204 74.54 13.2731C75.2909 13.4894 75.9399 13.7058 76.4872 13.9221C77.0471 14.1385 77.4798 14.4185 77.7853 14.7621C78.0907 15.1057 78.2434 15.5829 78.2434 16.1938C78.2434 17.1356 77.8871 17.8737 77.1744 18.4082C76.4617 18.93 75.5199 19.1909 74.3491 19.1909ZM90.3503 10.5051C89.5104 10.5178 88.7659 10.7341 88.1168 11.1541C87.4805 11.5614 87.0287 12.1277 86.7615 12.8531V19H85.0816V9.03515H86.6469V11.345C86.9905 10.6578 87.4423 10.1042 88.0023 9.6842C88.575 9.2515 89.1731 9.0097 89.7967 8.95879C89.924 8.95879 90.0322 8.95879 90.1213 8.95879C90.2104 8.95879 90.2867 8.96516 90.3503 8.97788V10.5051ZM96.1839 19.1909C95.433 19.1909 94.7458 19.0573 94.1222 18.79C93.5113 18.51 92.9768 18.1346 92.5187 17.6637C92.0732 17.1801 91.7233 16.6265 91.4687 16.0029C91.2269 15.3793 91.106 14.7175 91.106 14.0176C91.106 13.0758 91.3224 12.2168 91.7551 11.4405C92.1878 10.6641 92.7859 10.0405 93.5495 9.56966C94.3258 9.09878 95.2103 8.86334 96.203 8.86334C97.2084 8.86334 98.0801 9.10515 98.8183 9.58875C99.5691 10.0596 100.148 10.6832 100.555 11.4595C100.975 12.2231 101.185 13.0504 101.185 13.9412C101.185 14.0685 101.179 14.1957 101.166 14.323C101.166 14.4375 101.16 14.5266 101.147 14.5903H92.8814C92.9323 15.2393 93.1105 15.8184 93.4159 16.3274C93.734 16.8238 94.1413 17.2183 94.6376 17.511C95.134 17.791 95.6685 17.931 96.2412 17.931C96.852 17.931 97.4247 17.7783 97.9592 17.4728C98.5065 17.1674 98.8819 16.7665 99.0855 16.2702L100.536 16.6711C100.32 17.1547 99.9955 17.5874 99.5628 17.9692C99.1428 18.3509 98.6401 18.65 98.0547 18.8664C97.482 19.0827 96.8584 19.1909 96.1839 19.1909ZM92.8241 13.4258H99.6201C99.5691 12.7767 99.3846 12.204 99.0665 11.7077C98.7483 11.2114 98.341 10.8232 97.8447 10.5432C97.3484 10.2633 96.8011 10.1233 96.203 10.1233C95.6176 10.1233 95.0767 10.2633 94.5804 10.5432C94.084 10.8232 93.6768 11.2114 93.3586 11.7077C93.0532 12.204 92.875 12.7767 92.8241 13.4258ZM107.463 19.1909C106.712 19.1909 106.024 19.0573 105.401 18.79C104.79 18.51 104.255 18.1282 103.797 17.6446C103.352 17.161 103.002 16.6074 102.747 15.9838C102.506 15.3602 102.385 14.6984 102.385 13.9985C102.385 13.0567 102.595 12.1977 103.015 11.4214C103.435 10.6451 104.026 10.0278 104.79 9.56966C105.554 9.09878 106.438 8.86334 107.443 8.86334C108.423 8.86334 109.276 9.08606 110.001 9.53148C110.74 9.96419 111.287 10.5496 111.643 11.2877L110.001 11.8032C109.747 11.3323 109.391 10.9696 108.932 10.715C108.474 10.4478 107.965 10.3142 107.405 10.3142C106.794 10.3142 106.234 10.4732 105.725 10.7914C105.229 11.1096 104.834 11.5486 104.542 12.1086C104.249 12.6558 104.103 13.2858 104.103 13.9985C104.103 14.6984 104.249 15.3348 104.542 15.9075C104.847 16.4674 105.248 16.9129 105.744 17.2437C106.253 17.5746 106.813 17.7401 107.424 17.7401C107.819 17.7401 108.194 17.6701 108.551 17.5301C108.92 17.3901 109.238 17.2056 109.505 16.9765C109.785 16.7347 109.976 16.4738 110.078 16.1938L111.72 16.6901C111.516 17.1737 111.204 17.6064 110.784 17.9882C110.377 18.3573 109.887 18.65 109.314 18.8664C108.754 19.0827 108.137 19.1909 107.463 19.1909ZM112.84 16.1174C112.84 15.4811 113.018 14.9339 113.375 14.4757C113.744 14.0048 114.247 13.6421 114.883 13.3876C115.519 13.1331 116.257 13.0058 117.097 13.0058C117.543 13.0058 118.014 13.044 118.51 13.1204C119.006 13.184 119.445 13.2858 119.827 13.4258V12.7004C119.827 11.9368 119.598 11.3386 119.14 10.9059C118.682 10.4605 118.033 10.2378 117.193 10.2378C116.646 10.2378 116.117 10.3396 115.608 10.5432C115.112 10.7341 114.584 11.0141 114.024 11.3832L113.413 10.1996C114.062 9.7542 114.711 9.42331 115.36 9.20696C116.009 8.97788 116.684 8.86334 117.384 8.86334C118.656 8.86334 119.662 9.21969 120.4 9.93237C121.138 10.6323 121.507 11.6123 121.507 12.8722V17.091C121.507 17.2946 121.545 17.4474 121.622 17.5492C121.711 17.6383 121.851 17.6892 122.042 17.7019V19C121.876 19.0255 121.73 19.0445 121.602 19.0573C121.488 19.07 121.393 19.0764 121.316 19.0764C120.922 19.0764 120.623 18.9682 120.419 18.7518C120.228 18.5355 120.12 18.3064 120.094 18.0646L120.056 17.4346C119.624 17.9946 119.057 18.4273 118.357 18.7327C117.657 19.0382 116.964 19.1909 116.276 19.1909C115.615 19.1909 115.023 19.0573 114.501 18.79C113.979 18.51 113.572 18.141 113.279 17.6828C112.987 17.2119 112.84 16.6901 112.84 16.1174ZM119.331 16.8238C119.484 16.6456 119.604 16.4674 119.694 16.2893C119.783 16.0984 119.827 15.9393 119.827 15.812V14.5712C119.433 14.4185 119.019 14.3039 118.586 14.2276C118.154 14.1385 117.727 14.0939 117.307 14.0939C116.455 14.0939 115.761 14.2657 115.227 14.6094C114.705 14.9402 114.444 15.3984 114.444 15.9838C114.444 16.302 114.527 16.6138 114.692 16.9192C114.87 17.2119 115.125 17.4537 115.456 17.6446C115.799 17.8355 116.219 17.931 116.716 17.931C117.237 17.931 117.734 17.8292 118.205 17.6255C118.675 17.4092 119.051 17.1419 119.331 16.8238ZM123.544 14.0367C123.544 13.0949 123.735 12.2359 124.117 11.4595C124.511 10.6705 125.046 10.0405 125.72 9.56966C126.408 9.09878 127.19 8.86334 128.068 8.86334C128.87 8.86334 129.589 9.07333 130.226 9.4933C130.862 9.91328 131.358 10.4223 131.715 11.0205V5.06448H133.394V17.091C133.394 17.2946 133.433 17.4474 133.509 17.5492C133.598 17.6383 133.738 17.6892 133.929 17.7019V19C133.611 19.0509 133.363 19.0764 133.184 19.0764C132.854 19.0764 132.561 18.9618 132.306 18.7327C132.065 18.5037 131.944 18.2491 131.944 17.9692V17.1292C131.549 17.7655 131.021 18.2682 130.359 18.6373C129.697 19.0064 129.01 19.1909 128.297 19.1909C127.61 19.1909 126.974 19.0573 126.389 18.79C125.816 18.51 125.313 18.1282 124.88 17.6446C124.46 17.161 124.13 16.6138 123.888 16.0029C123.659 15.3793 123.544 14.7239 123.544 14.0367ZM131.715 15.5066V12.6431C131.562 12.2104 131.314 11.8223 130.97 11.4786C130.626 11.1223 130.238 10.8423 129.806 10.6387C129.386 10.4223 128.966 10.3142 128.546 10.3142C128.049 10.3142 127.598 10.4223 127.19 10.6387C126.796 10.8423 126.452 11.1223 126.159 11.4786C125.879 11.8223 125.663 12.2168 125.51 12.6622C125.358 13.1076 125.281 13.5721 125.281 14.0558C125.281 14.5521 125.364 15.023 125.529 15.4684C125.708 15.9138 125.949 16.3083 126.255 16.652C126.573 16.9956 126.936 17.2628 127.343 17.4537C127.763 17.6446 128.215 17.7401 128.698 17.7401C129.004 17.7401 129.316 17.6828 129.634 17.5683C129.965 17.4537 130.276 17.2946 130.569 17.091C130.862 16.8874 131.11 16.652 131.314 16.3847C131.517 16.1047 131.651 15.812 131.715 15.5066ZM140.551 19.1909C139.8 19.1909 139.12 19.0573 138.509 18.79C137.898 18.51 137.37 18.1346 136.924 17.6637C136.479 17.1801 136.135 16.6265 135.893 16.0029C135.652 15.3793 135.531 14.7239 135.531 14.0367C135.531 13.3367 135.652 12.6749 135.893 12.0513C136.135 11.4277 136.479 10.8805 136.924 10.4096C137.37 9.92601 137.898 9.55057 138.509 9.28332C139.132 9.00333 139.813 8.86334 140.551 8.86334C141.302 8.86334 141.983 9.00333 142.594 9.28332C143.205 9.55057 143.733 9.92601 144.178 10.4096C144.637 10.8805 144.986 11.4277 145.228 12.0513C145.47 12.6749 145.591 13.3367 145.591 14.0367C145.591 14.7239 145.47 15.3793 145.228 16.0029C144.986 16.6265 144.643 17.1801 144.197 17.6637C143.752 18.1346 143.218 18.51 142.594 18.79C141.983 19.0573 141.302 19.1909 140.551 19.1909ZM137.249 14.0558C137.249 14.743 137.395 15.3666 137.688 15.9266C137.993 16.4865 138.394 16.9319 138.891 17.2628C139.387 17.581 139.94 17.7401 140.551 17.7401C141.162 17.7401 141.716 17.5746 142.212 17.2437C142.721 16.9129 143.122 16.4674 143.415 15.9075C143.72 15.3348 143.873 14.7048 143.873 14.0176C143.873 13.3303 143.72 12.7067 143.415 12.1468C143.122 11.5868 142.721 11.1414 142.212 10.8105C141.716 10.4796 141.162 10.3142 140.551 10.3142C139.94 10.3142 139.387 10.486 138.891 10.8296C138.394 11.1605 137.993 11.6059 137.688 12.1659C137.395 12.7258 137.249 13.3558 137.249 14.0558ZM151.044 19.1909C150.216 19.1909 149.44 19.0573 148.715 18.79C147.989 18.51 147.366 18.0964 146.844 17.5492L147.493 16.3656C148.066 16.9001 148.638 17.2819 149.211 17.511C149.784 17.7401 150.369 17.8546 150.967 17.8546C151.655 17.8546 152.215 17.7274 152.647 17.4728C153.08 17.2056 153.296 16.8174 153.296 16.3083C153.296 15.9393 153.182 15.6657 152.953 15.4875C152.736 15.3093 152.424 15.163 152.017 15.0484C151.61 14.9212 151.126 14.7812 150.566 14.6284C149.879 14.4248 149.3 14.2085 148.829 13.9794C148.358 13.7503 148.002 13.464 147.76 13.1204C147.518 12.7767 147.398 12.344 147.398 11.8223C147.398 11.1859 147.563 10.6514 147.894 10.2187C148.225 9.77329 148.677 9.43604 149.249 9.20696C149.835 8.97788 150.496 8.86334 151.235 8.86334C151.973 8.86334 152.641 8.97788 153.239 9.20696C153.837 9.43604 154.353 9.77329 154.785 10.2187L154.022 11.3832C153.627 10.9759 153.194 10.6769 152.724 10.486C152.253 10.2823 151.725 10.1805 151.139 10.1805C150.795 10.1805 150.458 10.2251 150.127 10.3142C149.796 10.3905 149.523 10.5369 149.306 10.7532C149.09 10.9569 148.982 11.2496 148.982 11.6314C148.982 11.9495 149.065 12.204 149.23 12.3949C149.408 12.5731 149.663 12.7258 149.994 12.8531C150.337 12.9804 150.751 13.1204 151.235 13.2731C151.985 13.4894 152.634 13.7058 153.182 13.9221C153.742 14.1385 154.174 14.4185 154.48 14.7621C154.785 15.1057 154.938 15.5829 154.938 16.1938C154.938 17.1356 154.582 17.8737 153.869 18.4082C153.156 18.93 152.215 19.1909 151.044 19.1909Z" fill="#ADB5BD"/>
</svg>